<svg width="20" height="20" viewBox="0 0 20 20" fill="none" xmlns="http://www.w3.org/2000/svg">
<path d="M8.00625 10.875C10.2102 10.875 11.9969 9.11212 11.9969 6.9375C11.9969 4.76288 10.2102 3 8.00625 3C5.80229 3 4.01562 4.76288 4.01562 6.9375C4.01562 9.11212 5.80229 10.875 8.00625 10.875Z" fill="#0066FF"/>
<path d="M9.95784 16.4629H6.06089C4.93677 16.4629 4 15.5441 4 14.4004C4 13.1066 5.04918 12.0566 6.34192 12.0566H9.65807C10.9508 12.0566 12 13.1066 12 14.4004C12.0187 15.5441 11.1007 16.4629 9.95784 16.4629Z" fill="#72CDE1"/>
<path d="M16.0062 15.4121C18.2102 15.4121 19.9969 13.6492 19.9969 11.4746C19.9969 9.29999 18.2102 7.53711 16.0062 7.53711C13.8023 7.53711 12.0156 9.29999 12.0156 11.4746C12.0156 13.6492 13.8023 15.4121 16.0062 15.4121Z" fill="#0066FF"/>
<path d="M17.9578 21H14.0609C12.9368 21 12 20.0812 12 18.9375C12 17.6437 13.0492 16.5938 14.3419 16.5938H17.6581C18.9508 16.5938 20 17.6437 20 18.9375C20 20.0812 19.0819 21 17.9578 21Z" fill="#72CDE1"/>
</svg>
