<svg width="20" height="20" viewBox="0 0 20 20" fill="none" xmlns="http://www.w3.org/2000/svg">
<path d="M16.6378 5H6.36222C6.21111 5 5.98445 5.07692 5.90889 5.23077L3.11333 9.38462C2.96222 9.61538 2.96222 9.84615 3.11333 10.0769L11.0467 19.7692C11.2733 20.0769 11.7267 20.0769 11.9533 19.7692L19.8867 10.0769C20.0378 9.84615 20.0378 9.61538 19.8867 9.38462L17.0911 5.23077C17.0156 5.07692 16.7889 5 16.6378 5Z" fill="#C800F0"/>
<path d="M14.146 13.3551C13.5418 11.7422 12.3334 10.4365 10.6719 9.82207C12.2579 9.20764 13.5418 7.97876 14.146 6.28906C14.7502 7.90196 15.9586 9.20764 17.6201 9.82207C16.0341 10.4365 14.7502 11.7422 14.146 13.3551Z" fill="#57C145"/>
</svg>
