<svg width="24" height="24" viewBox="0 0 24 24" fill="none" xmlns="http://www.w3.org/2000/svg">
<path d="M16.1572 13.5684H13.5172V16.2216C13.5172 16.5432 13.2772 16.7844 12.9572 16.7844H10.3172V13.5684H7.11719V10.9152C7.11719 10.5936 7.3572 10.3524 7.6772 10.3524H10.3172V7.7796C10.3172 7.458 10.5572 7.2168 10.8772 7.2168H13.5172V10.4328H16.7172V13.086C16.7172 13.3272 16.4772 13.5684 16.1572 13.5684Z" fill="#57C145"/>
<path d="M9.84001 20.0004H4.56C4.24 20.0004 4 19.7592 4 19.4376V14.1312C4 13.8096 4.24 13.5684 4.56 13.5684H7.2V16.7844H10.4V19.4376C10.4 19.7592 10.16 20.0004 9.84001 20.0004Z" fill="#C800F0"/>
<path d="M14.1616 4H19.4416C19.7616 4 20.0016 4.2412 20.0016 4.5628V9.8692C20.0016 10.1908 19.7616 10.432 19.4416 10.432H16.8016V7.216H13.6016V4.5628C13.6016 4.2412 13.8416 4 14.1616 4Z" fill="#C800F0"/>
</svg>
